<svg xmlns="http://www.w3.org/2000/svg" viewBox="0 0 43.64 48"><g fill="#1a171b"><path d="M24.983 20.767a.726.726 0 0 0-.1 1.023 3.6 3.6 0 0 1 .817 2.3v4.693H15.515v-4.694a3.646 3.646 0 0 1 .818-2.3.727.727 0 1 0-1.127-.919 5.1 5.1 0 0 0-1.146 3.22v5.42a.729.729 0 0 0 .727.729h11.636a.728.728 0 0 0 .728-.729v-5.42A5.091 5.091 0 0 0 26 20.871a.723.723 0 0 0-1.017-.104zM20.607 20.187a3.636 3.636 0 1 0-3.637-3.637 3.641 3.641 0 0 0 3.637 3.637zm0-5.818a2.183 2.183 0 1 1-2.182 2.182 2.185 2.185 0 0 1 2.182-2.182z"></path><path d="M43.637 5.576V3.637A3.641 3.641 0 0 0 40 0H6.546a4.126 4.126 0 0 0-4.122 4.121v1.695H.727a.728.728 0 0 0 0 1.456h1.7v4.363h-1.7a.728.728 0 0 0 0 1.456h1.7v4.363h-1.7a.728.728 0 0 0 0 1.456h1.7v4.363h-1.7a.728.728 0 0 0 0 1.456h1.7v4.365h-1.7a.727.727 0 1 0 0 1.454h1.7v4.365h-1.7a.728.728 0 0 0 0 1.456h1.7v4.363h-1.7a.728.728 0 0 0 0 1.456h1.7v1.7A4.127 4.127 0 0 0 6.546 48H40a3.641 3.641 0 0 0 3.636-3.637v-1.935a3.623 3.623 0 0 0-1.476-2.908 3.623 3.623 0 0 0 1.477-2.908v-1.939a3.622 3.622 0 0 0-1.478-2.91 3.622 3.622 0 0 0 1.478-2.91v-1.945A3.62 3.62 0 0 0 42.16 24a3.624 3.624 0 0 0 1.477-2.91v-1.939a3.618 3.618 0 0 0-1.478-2.908 3.625 3.625 0 0 0 1.478-2.91v-1.939a3.62 3.62 0 0 0-1.477-2.908 3.629 3.629 0 0 0 1.477-2.91zm-1.454 36.847v1.939A2.185 2.185 0 0 1 40 46.544h-4.156a4.083 4.083 0 0 0 1-2.666v-3.635H40.007a2.186 2.186 0 0 1 2.176 2.18zm0-7.755v1.939a2.185 2.185 0 0 1-2.175 2.182H36.849v-6.3H40a2.185 2.185 0 0 1 2.183 2.179zm0-7.76v1.939A2.185 2.185 0 0 1 40 31.029h-3.151v-6.3H40a2.185 2.185 0 0 1 2.183 2.179zm0-7.758v1.939A2.185 2.185 0 0 1 40 23.271h-3.151v-6.3H40a2.185 2.185 0 0 1 2.183 2.179zm0-7.758v1.939A2.185 2.185 0 0 1 40 15.513h-3.151V9.21h3.156a2.186 2.186 0 0 1 2.178 2.182zm0-5.816a2.183 2.183 0 0 1-2.177 2.18h-3.883a.728.728 0 0 0-.728.729V43.88a2.669 2.669 0 0 1-2.667 2.666H6.546a2.669 2.669 0 0 1-2.667-2.666v-1.7h1.7a.728.728 0 0 0 0-1.456h-1.7v-4.358h1.7a.728.728 0 0 0 0-1.456h-1.7v-4.365h1.7a.727.727 0 1 0 0-1.454h-1.7v-4.365h1.7a.728.728 0 0 0 0-1.456h-1.7v-4.362h1.7a.728.728 0 0 0 0-1.456h-1.7v-4.363h1.7a.728.728 0 0 0 0-1.456h-1.7V7.27h1.7a.728.728 0 0 0 0-1.456h-1.7v-1.7a2.669 2.669 0 0 1 2.667-2.661H40a2.185 2.185 0 0 1 2.182 2.182v1.941z"></path></g></svg>