<svg xmlns="http://www.w3.org/2000/svg" xml:space="preserve" viewBox="0 8.77 128 110.45"><path fill="#282D33" d="M113.768 108.4h-4V47.361c0-.711-.567-1.289-1.265-1.289H92.895v-4h15.608c2.903 0 5.265 2.373 5.265 5.289V108.4zM18.231 108.4h-4V47.36c0-2.917 2.361-5.289 5.263-5.289h17.837v4H19.494c-.696 0-1.263.578-1.263 1.289v61.04z"></path><path fill="#282D33" d="M105.664 102.529H92.895v-4h8.769V53.85h-8.769v-4h12.769zM37.331 102.529H22.336V49.85h14.995v4H26.336v44.679h10.995zM118.563 119.227H9.436c-3.711 0-8.146-3.256-8.639-3.627L0 115v-8.904h128V115l-.798.6c-.493.371-4.929 3.627-8.639 3.627zM4 112.961c1.575 1.039 3.925 2.266 5.436 2.266h109.126c1.511 0 3.861-1.225 5.438-2.266v-2.865H4v2.865z"></path><g><path fill="#282D33" d="M64.896 106.186h-3.999V13.111H45.793v93.075h-4V9.111h23.103z"></path><path fill="#282D33" d="M53.713 17.276h9.184v4h-9.184zM57.952 25.441h4.945v4h-4.945zM53.713 33.607h9.184v4h-9.184zM57.952 41.772h4.945v4h-4.945zM53.713 49.938h9.184v4h-9.184zM57.952 58.104h4.945v4h-4.945zM53.713 66.27h9.184v4h-9.184zM57.952 74.436h4.945v4h-4.945zM53.713 82.602h9.184v4h-9.184zM57.952 90.766h4.945v4h-4.945zM53.713 98.932h9.184v4h-9.184z"></path><g><path fill="#282D33" d="M88.134 29.761h-4v-2.178l-5.611-10.389-5.606 10.389v2.178h-4v-3.189l9.606-17.799 9.611 17.799z"></path><path fill="#282D33" d="M72.919 106.502h-4l.002-78.528H88.13v78.528h-4V31.974H72.921z"></path><path fill="#282D33" d="M76.523 30.751h4v75.75h-4z"></path></g></g></svg>